<svg width="36" height="35" viewBox="0 0 36 35" fill="none" xmlns="http://www.w3.org/2000/svg">
<path d="M35.8698 25.4331C35.6442 25.0628 35.0537 24.8372 34.1704 24.3861C33.2896 23.9349 28.9287 21.765 28.1198 21.4706C27.3037 21.1691 26.7134 21.017 26.1229 21.9169C25.5396 22.8168 23.8404 24.8372 23.3195 25.4404C22.8035 26.041 22.2876 26.1172 21.4019 25.6734C20.5163 25.2173 17.6601 24.2757 14.2759 21.2182C11.6431 18.8349 9.86445 15.9 9.35087 15.0001C8.83012 14.1027 9.29806 13.6173 9.7373 13.171C10.1333 12.7665 10.6229 12.1215 11.067 11.5944C11.511 11.0722 11.6574 10.7019 11.9526 10.1013C12.243 9.50047 12.0967 8.97825 11.8783 8.52465C11.6574 8.07349 9.88855 3.66004 9.14699 1.86274C8.41003 0.0678793 7.67325 0.364516 7.15489 0.364516C6.63874 0.364516 6.04843 0.291016 5.45794 0.291016C4.86745 0.291016 3.90747 0.509264 3.09856 1.40914C2.28983 2.30901 0 4.47889 0 8.89723C0 13.3205 3.17069 17.5845 3.61471 18.1826C4.06112 18.7785 9.74447 28.1423 18.7474 31.7369C27.7549 35.3289 27.7551 34.1299 29.3775 33.9781C31.0047 33.826 34.6192 31.808 35.3538 29.714C36.093 27.6103 36.093 25.8081 35.8698 25.4331Z" fill="url(#paint0_linear_287_171)"/>
<defs>
<linearGradient id="paint0_linear_287_171" x1="18" y1="0.291016" x2="18" y2="34.291" gradientUnits="userSpaceOnUse">
<stop stop-color="#B16206"/>
<stop offset="0.456731" stop-color="#FFDEB8"/>
<stop offset="1" stop-color="#C7720E"/>
</linearGradient>
</defs>
</svg>
