<svg width="36" height="36" viewBox="0 0 36 36" fill="none" xmlns="http://www.w3.org/2000/svg">
<g clip-path="url(#clip0_287_184)">
<path d="M17.5769 0.291016C12.9356 0.291016 8.48441 2.13476 5.20253 5.41666C1.92064 8.69854 0.0769043 13.1497 0.0769043 17.791C0.0769043 22.4324 1.92064 26.8834 5.20253 30.1654C8.48441 33.4473 12.9356 35.2911 17.5769 35.2911C22.2182 35.2911 26.6694 33.4473 29.9513 30.1654C33.2332 26.8834 35.0769 22.4324 35.0769 17.791C35.0769 13.1497 33.2332 8.69854 29.9513 5.41666C26.6694 2.13476 22.2182 0.291016 17.5769 0.291016Z" fill="white"/>
<path d="M26.2831 9.91606L23.0054 26.6512C23.0054 26.6512 22.8646 27.416 21.916 27.416C21.412 27.416 21.1522 27.1762 21.1522 27.1762L14.0525 21.2849L10.5787 19.5341L6.12052 18.3484C6.12052 18.3484 5.3269 18.1192 5.3269 17.4629C5.3269 16.916 6.14328 16.6552 6.14328 16.6552L24.7947 9.24577C24.7947 9.24577 25.3644 9.04014 25.78 9.04102C26.0356 9.04102 26.327 9.15039 26.327 9.47851C26.327 9.69727 26.2831 9.91606 26.2831 9.91606Z" fill="#171717"/>
<path d="M16.7016 23.482L13.7039 26.4343C13.7039 26.4343 13.5736 26.5349 13.3994 26.5393C13.339 26.541 13.2743 26.5314 13.2078 26.5016L14.0513 21.2822L16.7016 23.482Z" fill="white"/>
<path d="M22.7367 12.7124C22.5889 12.5199 22.3159 12.485 22.1234 12.631L10.5769 19.541C10.5769 19.541 12.4197 24.6965 12.7005 25.589C12.9822 26.4822 13.2079 26.5032 13.2079 26.5032L14.0515 21.284L22.6545 13.325C22.8469 13.1787 22.8829 12.905 22.7367 12.7124Z" fill="white"/>
</g>
<defs>
<clipPath id="clip0_287_184">
<rect width="35" height="35" fill="white" transform="translate(0.0769043 0.291016)"/>
</clipPath>
</defs>
</svg>
