<svg width="32" height="32" viewBox="0 0 32 32" fill="none" xmlns="http://www.w3.org/2000/svg">
<path d="M16.0013 2.6665C12.4651 2.6665 9.07369 4.07126 6.57321 6.57175C4.07272 9.07223 2.66797 12.4636 2.66797 15.9998C2.66797 19.5361 4.07272 22.9274 6.57321 25.4279C9.07369 27.9284 12.4651 29.3332 16.0013 29.3332C19.5375 29.3332 22.9289 27.9284 25.4294 25.4279C27.9299 22.9274 29.3346 19.5361 29.3346 15.9998C29.3346 12.4636 27.9299 9.07223 25.4294 6.57175C22.9289 4.07126 19.5375 2.6665 16.0013 2.6665Z" fill="url(#paint0_linear_302_1028)"/>
<path d="M22.6346 10.0002L20.1373 22.7508C20.1373 22.7508 20.03 23.3335 19.3073 23.3335C18.9233 23.3335 18.7253 23.1508 18.7253 23.1508L13.316 18.6622L10.6693 17.3282L7.27263 16.4248C7.27263 16.4248 6.66797 16.2502 6.66797 15.7502C6.66797 15.3335 7.28997 15.1348 7.28997 15.1348L21.5006 9.4895C21.5006 9.4895 21.9346 9.33283 22.2513 9.3335C22.446 9.3335 22.668 9.41683 22.668 9.66683C22.668 9.8335 22.6346 10.0002 22.6346 10.0002Z" fill="#2F2F2F"/>
<path d="M15.3339 20.3366L13.0499 22.586C13.0499 22.586 12.9506 22.6626 12.8179 22.666C12.7719 22.6673 12.7226 22.66 12.6719 22.6373L13.3146 18.6606L15.3339 20.3366Z" fill="#35291E"/>
<path d="M19.9326 12.1306C19.82 11.9839 19.612 11.9573 19.4653 12.0686L10.668 17.3333C10.668 17.3333 12.072 21.2613 12.286 21.9413C12.5006 22.6219 12.6726 22.6379 12.6726 22.6379L13.3153 18.6613L19.87 12.5973C20.0166 12.4859 20.044 12.2773 19.9326 12.1306Z" fill="url(#paint1_linear_302_1028)"/>
<defs>
<linearGradient id="paint0_linear_302_1028" x1="16.0013" y1="2.6665" x2="16.0013" y2="29.3332" gradientUnits="userSpaceOnUse">
<stop stop-color="#B16206"/>
<stop offset="0.456731" stop-color="#FFDEB8"/>
<stop offset="1" stop-color="#C7720E"/>
</linearGradient>
<linearGradient id="paint1_linear_302_1028" x1="15.3345" y1="12" x2="15.3345" y2="22.6379" gradientUnits="userSpaceOnUse">
<stop stop-color="#B16206"/>
<stop offset="0.456731" stop-color="#FFDEB8"/>
<stop offset="1" stop-color="#C7720E"/>
</linearGradient>
</defs>
</svg>
