<svg width="36" height="36" viewBox="0 0 36 36" fill="none" xmlns="http://www.w3.org/2000/svg">
<circle cx="17.5385" cy="17.8295" r="17.5385" fill="white"/>
<g clip-path="url(#clip0_287_180)">
<path d="M24.7685 18.7688C24.4141 18.3212 24.5155 18.1221 24.7685 17.722C24.7731 17.7174 27.6989 13.6744 28.0003 12.3033L28.0021 12.3024C28.152 11.8028 28.0021 11.4355 27.2778 11.4355H24.8808C24.2707 11.4355 23.9893 11.7507 23.8386 12.1033C23.8386 12.1033 22.6182 15.0245 20.8918 16.9181C20.3345 17.4653 20.077 17.6407 19.7728 17.6407C19.623 17.6407 19.39 17.4653 19.39 16.9656V12.3024C19.39 11.7032 19.2192 11.4355 18.7141 11.4355H14.9451C14.5624 11.4355 14.3349 11.7151 14.3349 11.9754C14.3349 12.5436 15.1982 12.6742 15.2877 14.2728V17.7412C15.2877 18.5012 15.1497 18.6409 14.8437 18.6409C14.0289 18.6409 12.0513 15.7078 10.8793 12.3508C10.6427 11.6995 10.4116 11.4365 9.79686 11.4365H7.39902C6.71484 11.4365 6.5769 11.7516 6.5769 12.1042C6.5769 12.7272 7.39171 15.8247 10.3659 19.917C12.3482 22.7104 15.1397 24.224 17.6791 24.224C19.2055 24.224 19.3919 23.8879 19.3919 23.3096C19.3919 20.6405 19.2539 20.3884 20.0185 20.3884C20.3729 20.3884 20.9831 20.5638 22.4081 21.9111C24.0368 23.5088 24.3045 24.224 25.2161 24.224H27.613C28.2963 24.224 28.6425 23.8879 28.4433 23.2247C27.9875 21.8298 24.9073 18.9606 24.7685 18.7688Z" fill="#171717"/>
</g>
<defs>
<clipPath id="clip0_287_180">
<rect width="21.9231" height="21.9231" fill="white" transform="translate(6.5769 6.86816)"/>
</clipPath>
</defs>
</svg>
