<svg width="32" height="33" viewBox="0 0 32 33" fill="none" xmlns="http://www.w3.org/2000/svg">
<g clip-path="url(#clip0_287_166)">
<path d="M32 15.8793C32 24.488 24.967 31.4667 16.2896 31.4667C13.5358 31.4667 10.9491 30.7624 8.69728 29.5289L0 32.291L2.8351 23.9256C1.40555 21.5777 0.582254 18.8209 0.582254 15.8783C0.583298 7.26972 7.61418 0.291016 16.2917 0.291016C24.9681 0.293103 32 7.27077 32 15.8793ZM16.2885 2.77655C9.00616 2.77655 3.0824 8.65542 3.0824 15.8825C3.0824 18.75 4.01734 21.4045 5.5982 23.5645L3.94952 28.4302L9.02288 26.8181C11.1098 28.1871 13.6068 28.9843 16.2885 28.9843C23.5709 28.9843 29.4967 23.1065 29.4967 15.8793C29.4988 8.65542 23.5719 2.77655 16.2885 2.77655ZM24.223 19.47C24.125 19.3124 23.8682 19.2164 23.4842 19.0244C23.1013 18.8324 21.2054 17.9089 20.8537 17.7837C20.4989 17.6553 20.2422 17.5906 19.9855 17.9736C19.7319 18.3565 18.9932 19.2164 18.7667 19.4731C18.5424 19.7287 18.3181 19.7611 17.933 19.5722C17.548 19.3781 16.3062 18.9774 14.835 17.6762C13.6903 16.662 12.917 15.4129 12.6938 15.03C12.4674 14.6481 12.6708 14.4415 12.8618 14.2516C13.0339 14.0794 13.2468 13.8049 13.4398 13.5806C13.6329 13.3584 13.6966 13.2008 13.8249 12.9452C13.9511 12.6895 13.8875 12.4673 13.7926 12.2742C13.6966 12.0822 12.9275 10.204 12.6051 9.4391C12.2847 8.67526 11.9644 8.8015 11.739 8.8015C11.5146 8.8015 11.258 8.77022 11.0013 8.77022C10.7446 8.77022 10.3272 8.8631 9.97552 9.24606C9.62392 9.62902 8.6284 10.5525 8.6284 12.4328C8.6284 14.3152 10.0069 16.1298 10.1999 16.3844C10.394 16.638 12.8649 20.6229 16.779 22.1527C20.695 23.6813 20.6951 23.1711 21.4005 23.1065C22.1079 23.0417 23.6794 22.1829 23.9987 21.2918C24.3201 20.3965 24.3201 19.6296 24.223 19.47Z" fill="url(#paint0_linear_287_166)"/>
</g>
<defs>
<linearGradient id="paint0_linear_287_166" x1="16" y1="0.291016" x2="16" y2="32.291" gradientUnits="userSpaceOnUse">
<stop stop-color="#B16206"/>
<stop offset="0.456731" stop-color="#FFDEB8"/>
<stop offset="1" stop-color="#C7720E"/>
</linearGradient>
<clipPath id="clip0_287_166">
<rect width="32" height="32" fill="white" transform="translate(0 0.291016)"/>
</clipPath>
</defs>
</svg>
